HIERARCHY
ROOT Hips
{
 OFFSET 0.000000 0.000000 0.000000
 CHANNELS 6 Xposition Yposition Zposition Yrotation Xrotation Zrotation
 JOINT Chest
 {
  OFFSET 0.000000 9.525037 -0.001771
  CHANNELS 3 Yrotation Xrotation Zrotation
  JOINT Chest2
  {
   OFFSET 0.000000 10.455320 0.003217
   CHANNELS 3 Yrotation Xrotation Zrotation
   JOINT Chest3
   {
    OFFSET 0.000000 9.446594 0.000000
    CHANNELS 3 Yrotation Xrotation Zrotation
    JOINT Chest4
    {
     OFFSET 0.000000 9.446594 0.000000
     CHANNELS 3 Yrotation Xrotation Zrotation
     JOINT Neck
     {
      OFFSET 0.000000 13.308186 0.000000
      CHANNELS 3 Yrotation Xrotation Zrotation
      JOINT Head
      {
       OFFSET 0.000000 8.794412 0.007650
       CHANNELS 3 Yrotation Xrotation Zrotation
       End Site
       {
        OFFSET 0.000000 16.822591 0.003996
       }
      }
     }
     JOINT RightCollar
     {
      OFFSET -2.900669 7.427605 0.000000
      CHANNELS 3 Yrotation Xrotation Zrotation
      JOINT RightShoulder
      {
       OFFSET -13.597466 0.000000 0.000000
       CHANNELS 3 Yrotation Xrotation Zrotation
       JOINT RightElbow
       {
        OFFSET 0.000000 -29.172172 0.000000
        CHANNELS 3 Yrotation Xrotation Zrotation
        JOINT RightWrist
        {
         OFFSET 0.000000 -23.835989 -0.000000
         CHANNELS 3 Yrotation Xrotation Zrotation
         End Site
         {
          OFFSET 0.000000 -17.771889 0.000000
         }
        }
       }
      }
     }
     JOINT LeftCollar
     {
      OFFSET 2.900669 7.427605 0.000000
      CHANNELS 3 Yrotation Xrotation Zrotation
      JOINT LeftShoulder
      {
       OFFSET 13.597466 0.000000 0.000000
       CHANNELS 3 Yrotation Xrotation Zrotation
       JOINT LeftElbow
       {
        OFFSET 0.000000 -29.172172 0.000000
        CHANNELS 3 Yrotation Xrotation Zrotation
        JOINT LeftWrist
        {
         OFFSET 0.000000 -23.835989 -0.000000
         CHANNELS 3 Yrotation Xrotation Zrotation
         End Site
         {
          OFFSET 0.000000 -17.771889 0.000000
         }
        }
       }
      }
     }
    }
   }
  }
 }
 JOINT RightHip
 {
  OFFSET -7.749467 0.008677 0.000885
  CHANNELS 3 Yrotation Xrotation Zrotation
  JOINT RightKnee
  {
   OFFSET 0.000000 -40.321500 -0.000838
   CHANNELS 3 Yrotation Xrotation Zrotation
   JOINT RightAnkle
   {
    OFFSET 0.000000 -39.284740 -0.001417
    CHANNELS 3 Yrotation Xrotation Zrotation
    JOINT RightToe
    {
     OFFSET 0.000000 -6.579007 14.925618
     CHANNELS 3 Yrotation Xrotation Zrotation
     End Site
     {
      OFFSET 0.000000 -1.461561 6.290426
     }
    }
   }
  }
 }
 JOINT LeftHip
 {
  OFFSET 7.749467 0.008677 0.000885
  CHANNELS 3 Yrotation Xrotation Zrotation
  JOINT LeftKnee
  {
   OFFSET 0.000000 -40.321500 -0.000838
   CHANNELS 3 Yrotation Xrotation Zrotation
   JOINT LeftAnkle
   {
    OFFSET 0.000000 -39.284740 -0.001417
    CHANNELS 3 Yrotation Xrotation Zrotation
    JOINT LeftToe
    {
     OFFSET 0.000000 -6.579007 14.925618
     CHANNELS 3 Yrotation Xrotation Zrotation
     End Site
     {
      OFFSET 0.000000 -1.461561 6.290426
     }
    }
   }
  }
 }
}
MOTION
Frames: 7
Frame Time: 0.008333
-15.859703 86.732195 3.945640 26.885584 0.779321 -0.336491 4.014059 9.072866 1.720192 1.705921 3.996902 0.646559 1.705921 3.996902 0.646559 1.274689 2.999512 0.473554 18.042465 25.016325 -6.910644 23.238709 4.014826 -12.452639 -2.205293 0.895555 12.935692 2.383588 -15.776638 -21.560656 34.470386 -19.964495 6.184439 14.835772 -3.901432 -15.482162 -3.215718 0.115069 -10.515470 -26.167401 -16.983754 28.446140 -8.070383 -10.483093 -4.556286 -2.730777 -3.264380 17.123136 -25.128605 0.918260 -3.718571 11.779099 11.386424 -0.177504 -0.270980 -12.884342 0.201028 0.068935 0.427494 -0.101499 25.140778 -18.600970 -4.328063 1.032832 19.234002 4.524441 -1.909246 0.900109 0.732674 0.022656 0.027097 -0.328676
-15.983637 86.759160 3.710568 26.221194 0.829291 -0.341059 3.961599 9.125361 1.711381 1.670416 4.012844 0.629095 1.670416 4.012844 0.629095 1.248165 3.011382 0.460649 17.999401 24.836507 -6.810364 23.148610 3.750655 -12.323033 -2.255419 0.971213 12.917070 2.132307 -15.792460 -21.582888 34.601223 -19.457583 5.925745 14.958903 -3.814208 -15.551711 -3.387498 0.129425 -10.622245 -27.223529 -16.914065 28.760873 -7.979879 -11.176882 -4.632737 -2.281717 -3.597130 17.041582 -25.080062 0.516313 -3.603440 12.228838 11.543589 -0.154698 -0.191572 -12.723432 0.197632 0.064461 0.379049 -0.131412 24.908975 -18.761546 -4.280521 -0.166399 19.745729 4.485844 -2.273564 0.157765 0.410192 0.076613 0.376140 -0.331758
-16.085018 86.786470 3.484053 25.570594 0.873353 -0.326647 3.903812 9.155967 1.670755 1.644427 4.028631 0.607098 1.644427 4.028631 0.607098 1.228805 3.023136 0.444283 17.945751 24.658043 -6.703185 23.042272 3.485492 -12.182107 -2.324215 1.052278 12.905638 1.903473 -15.778857 -21.592088 34.611634 -18.902000 5.669339 15.075003 -3.726984 -15.660929 -3.580817 0.153589 -10.725417 -28.324134 -16.784698 29.131072 -7.837991 -11.886607 -4.736924 -1.869673 -3.898096 16.923895 -25.015067 0.125487 -3.514209 12.651375 11.696859 -0.139537 -0.112485 -12.560681 0.193278 0.054138 0.332253 -0.141739 24.523772 -18.885669 -4.243140 -1.665516 20.360255 4.361275 -2.446245 -0.731247 0.076633 0.094588 0.676364 -0.335098
-16.169278 86.813899 3.254761 24.941281 0.918879 -0.287201 3.833333 9.153826 1.597908 1.623409 4.042482 0.579440 1.623409 4.042482 0.579440 1.213214 3.033428 0.423649 17.880468 24.493022 -6.586291 22.917401 3.234435 -12.025772 -2.398285 1.154537 12.919347 1.678512 -15.752537 -21.607899 34.516975 -18.283697 5.409975 15.197203 -3.634452 -15.795218 -3.764512 0.186381 -10.813786 -29.518637 -16.653695 29.564549 -7.665117 -12.551693 -4.903970 -1.546578 -4.182911 16.769387 -24.929370 -0.266389 -3.458157 13.000829 11.836019 -0.125443 0.002068 -12.401699 0.189755 0.047014 0.302113 -0.144775 23.991661 -18.975764 -4.235525 -3.407964 21.019581 4.120100 -2.371642 -1.643840 -0.198672 0.077975 0.880773 -0.354475
-16.230855 86.841995 3.028246 24.325408 0.952632 -0.247161 3.767977 9.141936 1.512091 1.610786 4.056004 0.549881 1.610786 4.056004 0.549881 1.203931 3.043479 0.401535 17.805995 24.334666 -6.468634 22.780197 2.990817 -11.865912 -2.482617 1.266687 12.943316 1.461244 -15.730046 -21.612866 34.319477 -17.607759 5.161751 15.314896 -3.548343 -15.963199 -3.989530 0.246839 -10.895894 -30.806304 -16.484419 30.081059 -7.397551 -13.191778 -5.105104 -1.235726 -4.448031 16.613918 -24.802723 -0.629379 -3.420076 13.284028 11.953005 -0.118366 0.116616 -12.226273 0.195325 0.036997 0.269558 -0.139549 23.301567 -19.031906 -4.200315 -5.173239 21.676591 3.787542 -2.291401 -2.505802 -0.412478 0.058435 0.973458 -0.369722
-16.277484 86.869587 2.798293 23.729272 0.981132 -0.206743 3.698744 9.131217 1.426217 1.596886 4.073173 0.517931 1.596886 4.073173 0.517931 1.193704 3.056260 0.377629 17.724608 24.176252 -6.359327 22.636680 2.748004 -11.714499 -2.548320 1.351148 12.981863 1.209317 -15.700355 -21.608989 34.019889 -16.883609 4.916301 15.423720 -3.455334 -16.176178 -4.165957 0.284155 -10.972850 -32.226581 -16.311463 30.654119 -7.104651 -13.760193 -5.350175 -1.024453 -4.732150 16.438800 -24.656241 -0.974962 -3.402892 13.522643 12.044714 -0.098677 0.242740 -12.045639 0.203282 0.030212 0.248525 -0.134754 22.431764 -19.097541 -4.130696 -6.780431 22.339211 3.394631 -2.213143 -3.259302 -0.574838 0.042129 0.944713 -0.358961
-16.306918 86.896780 2.573782 23.135467 0.983839 -0.181293 3.651981 9.142762 1.351389 1.587261 4.091782 0.486952 1.587261 4.091782 0.486952 1.186675 3.070127 0.354418 17.636947 24.024319 -6.261958 22.488855 2.515142 -11.575846 -2.614151 1.418440 13.020282 0.927016 -15.672461 -21.592519 33.644339 -16.127134 4.684907 15.521457 -3.358135 -16.418056 -4.352395 0.322861 -11.035242 -33.725203 -16.120275 31.280217 -6.779174 -14.262348 -5.599217 -0.786279 -5.032177 16.252366 -24.471881 -1.289378 -3.393814 13.731158 12.144660 -0.071780 0.351811 -11.859510 0.216027 0.021150 0.218878 -0.127853 21.425912 -19.150229 -3.984207 -8.025246 22.975781 3.016439 -2.355689 -3.907089 -0.707875 0.046263 0.829673 -0.316479
